<?xml version="1.0" encoding="UTF-8"?>
<svg xmlns="http://www.w3.org/2000/svg" xmlns:xlink="http://www.w3.org/1999/xlink" width="100pt" height="100pt" viewBox="0 0 100 100" version="1.1">
<g id="surface25842372">
<path style=" stroke:none;fill-rule:nonzero;fill:rgb(78.431374%,92.941177%,90.196079%);fill-opacity:1;" d="M 87.199219 55.601562 C 87.5 55 87.800781 54.300781 88 53.699219 C 90.601562 45.898438 86.699219 36.601562 78.300781 34.398438 C 77.398438 23 69.398438 15.199219 60.398438 13.898438 C 50.101562 12.398438 40.601562 18.898438 37.398438 29.398438 C 33.601562 28.101562 29.898438 28.199219 26.398438 30.300781 C 24.800781 31 23.398438 32.101562 22.101562 33.5 C 20.199219 35.601562 19 38.199219 18.398438 41 C 17.699219 41.101562 16.898438 41.199219 16.199219 41.5 C 12.199219 42.898438 9.601562 45.898438 8.898438 50.398438 C 8.5 53.199219 9.300781 56 9.800781 57.101562 C 11.699219 61.601562 16.199219 64.101562 20.800781 63.398438 C 21 63.398438 21.398438 63.5 21.601562 63.601562 C 21.800781 70.699219 25.300781 77 30.5 80.601562 C 38.800781 86.398438 49.5 84.601562 56.300781 76.699219 C 59.199219 79.699219 62.601562 81.101562 66.699219 80.601562 C 70.699219 80.101562 73.800781 77.898438 76.101562 74.300781 C 77.199219 74.601562 78.199219 75 79.199219 75.101562 C 83.199219 75.5 86.5 73.898438 88.898438 70.300781 C 89 70.199219 89.101562 70.101562 89.199219 70 C 89.5 69.199219 89.898438 68.398438 90.199219 67.601562 C 90.398438 66.398438 90.601562 65.199219 90.601562 64 C 90.699219 60.5 89.398438 57.5 87.199219 55.601562 Z M 87.199219 55.601562 "/>
<path style=" stroke:none;fill-rule:nonzero;fill:rgb(99.215686%,98.823529%,93.725491%);fill-opacity:1;" d="M 41.300781 34.398438 C 41.300781 34.398438 53 34.398438 53.101562 34.398438 C 55.800781 34.398438 58 32.199219 58 29.5 C 58 27.101562 56.300781 25.199219 54.101562 24.699219 C 54.101562 24.5 54.101562 24.300781 54.101562 24.101562 C 54.101562 21.300781 51.800781 19 49 19 C 47.300781 19 45.898438 19.800781 45 21 C 44.800781 17.898438 42 15.5 38.699219 15.898438 C 36.300781 16.199219 34.398438 18 33.898438 20.398438 C 33.800781 21.199219 33.800781 21.898438 33.898438 22.601562 C 33.300781 21.898438 32.398438 21.5 31.300781 21.5 C 29.398438 21.5 27.898438 22.898438 27.800781 24.800781 C 27 24.601562 26 24.601562 25.101562 25 C 23.300781 25.699219 22 27.398438 21.898438 29.398438 C 21.800781 32.199219 24 34.5 26.800781 34.5 C 27 34.5 27.699219 34.5 27.898438 34.5 L 38.101562 34.5 "/>
<path style=" stroke:none;fill-rule:nonzero;fill:rgb(27.843139%,16.862746%,16.078432%);fill-opacity:1;" d="M 53.101562 34.898438 L 41.300781 34.898438 C 41 34.898438 40.800781 34.699219 40.800781 34.398438 C 40.800781 34.101562 41 33.898438 41.300781 33.898438 L 53.101562 33.898438 C 55.5 33.898438 57.5 31.898438 57.5 29.5 C 57.5 27.398438 56 25.601562 54 25.199219 C 53.699219 25.101562 53.601562 24.898438 53.601562 24.601562 C 53.601562 24.398438 53.601562 24.199219 53.601562 24 C 53.601562 21.5 51.601562 19.398438 49 19.398438 C 47.601562 19.398438 46.199219 20.101562 45.398438 21.199219 C 45.300781 21.398438 45.101562 21.398438 44.898438 21.398438 C 44.699219 21.300781 44.601562 21.199219 44.5 21 C 44.398438 19.601562 43.699219 18.300781 42.699219 17.5 C 41.601562 16.601562 40.199219 16.199219 38.800781 16.398438 C 36.601562 16.699219 34.800781 18.300781 34.398438 20.5 C 34.300781 21.199219 34.300781 21.800781 34.398438 22.5 C 34.398438 22.699219 34.300781 22.898438 34.101562 23 C 33.898438 23.101562 33.699219 23.101562 33.5 22.898438 C 32.898438 22.300781 32.101562 21.898438 31.300781 21.898438 C 29.699219 21.898438 28.398438 23.101562 28.300781 24.699219 C 28.300781 24.800781 28.199219 25 28.101562 25.101562 C 28 25.199219 27.800781 25.199219 27.699219 25.199219 C 26.898438 25 26.101562 25.101562 25.300781 25.398438 C 23.601562 26 22.5 27.601562 22.398438 29.300781 C 22.398438 30.5 22.800781 31.699219 23.601562 32.5 C 24.398438 33.398438 25.601562 33.800781 26.800781 33.800781 L 38.101562 33.800781 C 38.398438 33.800781 38.601562 34 38.601562 34.300781 C 38.601562 34.601562 38.398438 34.800781 38.101562 34.800781 L 26.898438 34.800781 C 25.398438 34.800781 24 34.199219 23 33.101562 C 22 32 21.398438 30.601562 21.5 29.101562 C 21.601562 27 23 25 25 24.300781 C 25.800781 24 26.601562 23.898438 27.5 24 C 27.898438 22.199219 29.5 20.800781 31.398438 20.800781 C 32.101562 20.800781 32.800781 21 33.300781 21.300781 C 33.300781 20.898438 33.300781 20.5 33.398438 20.101562 C 33.898438 17.5 36 15.5 38.601562 15.199219 C 40.300781 15 41.898438 15.5 43.199219 16.5 C 44.199219 17.300781 44.898438 18.5 45.199219 19.699219 C 46.199219 18.800781 47.5 18.300781 48.898438 18.300781 C 52 18.300781 54.5 20.800781 54.5 23.898438 C 54.5 24 54.5 24.101562 54.5 24.101562 C 56.800781 24.800781 58.300781 26.898438 58.300781 29.300781 C 58.5 32.5 56.101562 34.898438 53.101562 34.898438 Z M 53.101562 34.898438 "/>
<path style=" stroke:none;fill-rule:nonzero;fill:rgb(99.215686%,98.823529%,93.725491%);fill-opacity:1;" d="M 38.5 23.699219 C 36.699219 23.601562 35.101562 24.800781 35 26.5 C 35 26.699219 35 26.898438 35 27.101562 C 34.699219 26.699219 34.101562 26.398438 33.5 26.398438 C 32.398438 26.300781 31.5 27 31.300781 28 C 31.101562 27.898438 30.898438 27.898438 30.699219 27.898438 C 29.101562 27.800781 27.800781 28.898438 27.699219 30.300781 "/>
<path style=" stroke:none;fill-rule:nonzero;fill:rgb(27.843139%,16.862746%,16.078432%);fill-opacity:1;" d="M 27.800781 30.601562 C 27.601562 30.601562 27.5 30.5 27.5 30.300781 C 27.601562 28.699219 29.101562 27.5 30.800781 27.601562 C 30.898438 27.601562 31.101562 27.601562 31.199219 27.699219 C 31.5 26.699219 32.5 26.101562 33.601562 26.101562 C 34 26.101562 34.398438 26.300781 34.800781 26.5 C 34.800781 26.5 34.800781 26.5 34.800781 26.398438 C 34.898438 24.601562 36.601562 23.199219 38.5 23.398438 C 38.601562 23.398438 38.699219 23.5 38.699219 23.699219 C 38.699219 23.898438 38.601562 24 38.398438 23.898438 C 36.699219 23.800781 35.300781 24.898438 35.199219 26.5 C 35.199219 26.699219 35.199219 26.898438 35.199219 27.101562 C 35.199219 27.199219 35.199219 27.300781 35.101562 27.398438 C 35 27.5 34.898438 27.398438 34.800781 27.300781 C 34.5 26.898438 34 26.699219 33.5 26.699219 C 32.5 26.699219 31.699219 27.300781 31.601562 28.101562 C 31.601562 28.199219 31.601562 28.199219 31.5 28.300781 C 31.398438 28.300781 31.398438 28.398438 31.300781 28.300781 C 31.101562 28.199219 30.898438 28.199219 30.699219 28.199219 C 29.398438 28 28.101562 29 28 30.300781 C 28 30.5 27.898438 30.601562 27.800781 30.601562 Z M 27.800781 30.601562 "/>
<path style=" stroke:none;fill-rule:nonzero;fill:rgb(99.215686%,98.823529%,93.725491%);fill-opacity:1;" d="M 55.101562 25.300781 C 53.398438 24.5 51.398438 25.101562 50.699219 26.601562 C 50.601562 26.800781 50.5 27 50.5 27.199219 "/>
<path style=" stroke:none;fill-rule:nonzero;fill:rgb(27.843139%,16.862746%,16.078432%);fill-opacity:1;" d="M 50.5 27.398438 C 50.300781 27.398438 50.199219 27.199219 50.300781 27.101562 C 50.300781 26.898438 50.398438 26.699219 50.5 26.5 C 51.300781 24.898438 53.398438 24.300781 55.199219 25.101562 C 55.300781 25.199219 55.398438 25.300781 55.300781 25.398438 C 55.199219 25.5 55.101562 25.601562 55 25.5 C 53.398438 24.800781 51.601562 25.300781 50.898438 26.601562 C 50.800781 26.800781 50.800781 26.898438 50.699219 27.101562 C 50.699219 27.300781 50.601562 27.398438 50.5 27.398438 Z M 50.5 27.398438 "/>
<path style=" stroke:none;fill-rule:nonzero;fill:rgb(100%,100%,100%);fill-opacity:1;" d="M 17.898438 57 L 7.898438 57 C 7.601562 57 7.398438 56.800781 7.398438 56.5 C 7.398438 56.199219 7.601562 56 7.898438 56 L 17.898438 56 C 18.199219 56 18.398438 56.199219 18.398438 56.5 C 18.398438 56.800781 18.199219 57 17.898438 57 Z M 21.300781 56.5 C 21.300781 56.199219 21.101562 56 20.800781 56 L 19.398438 56 C 19.101562 56 18.898438 56.199219 18.898438 56.5 C 18.898438 56.800781 19.101562 57 19.398438 57 L 20.800781 57 C 21.101562 57 21.300781 56.800781 21.300781 56.5 Z M 25.300781 56.5 C 25.300781 56.199219 25.101562 56 24.800781 56 L 22.300781 56 C 22 56 21.800781 56.199219 21.800781 56.5 C 21.800781 56.800781 22 57 22.300781 57 L 24.800781 57 C 25.101562 57 25.300781 56.800781 25.300781 56.5 Z M 25.300781 58.5 C 25.300781 58.199219 25.101562 58 24.800781 58 L 15.199219 58 C 14.898438 58 14.699219 58.199219 14.699219 58.5 C 14.699219 58.800781 14.898438 59 15.199219 59 L 24.800781 59 C 25.101562 59 25.300781 58.800781 25.300781 58.5 Z M 14 58.5 C 14 58.199219 13.800781 58 13.5 58 L 12.898438 58 C 12.601562 58 12.398438 58.199219 12.398438 58.5 C 12.398438 58.800781 12.601562 59 12.898438 59 L 13.5 59 C 13.800781 59 14 58.800781 14 58.5 Z M 11.601562 58.5 C 11.601562 58.199219 11.398438 58 11.101562 58 L 9.699219 58 C 9.398438 58 9.199219 58.199219 9.199219 58.5 C 9.199219 58.800781 9.398438 59 9.699219 59 L 11.199219 59 C 11.398438 59 11.601562 58.800781 11.601562 58.5 Z M 20.699219 54.5 C 20.699219 54.199219 20.5 54 20.199219 54 L 15.199219 54 C 14.898438 54 14.699219 54.199219 14.699219 54.5 C 14.699219 54.800781 14.898438 55 15.199219 55 L 20.199219 55 C 20.5 55 20.699219 54.800781 20.699219 54.5 Z M 20.699219 52.5 C 20.699219 52.199219 20.5 52 20.199219 52 L 19 52 C 18.699219 52 18.5 52.199219 18.5 52.5 C 18.5 52.800781 18.699219 53 19 53 L 20.300781 53 C 20.5 53 20.699219 52.800781 20.699219 52.5 Z M 17.5 60.5 C 17.5 60.199219 17.300781 60 17 60 L 15.199219 60 C 14.898438 60 14.699219 60.199219 14.699219 60.5 C 14.699219 60.800781 14.898438 61 15.199219 61 L 17 61 C 17.300781 61 17.5 60.800781 17.5 60.5 Z M 17.5 60.5 "/>
<path style=" stroke:none;fill-rule:nonzero;fill:rgb(100%,100%,100%);fill-opacity:1;" d="M 71.699219 25 L 61.699219 25 C 61.398438 25 61.199219 24.800781 61.199219 24.5 C 61.199219 24.199219 61.398438 24 61.699219 24 L 71.699219 24 C 72 24 72.199219 24.199219 72.199219 24.5 C 72.199219 24.800781 72 25 71.699219 25 Z M 75.101562 24.5 C 75.101562 24.199219 74.898438 24 74.601562 24 L 73.199219 24 C 72.898438 24 72.699219 24.199219 72.699219 24.5 C 72.699219 24.800781 72.898438 25 73.199219 25 L 74.601562 25 C 74.898438 25 75.101562 24.800781 75.101562 24.5 Z M 79.199219 24.5 C 79.199219 24.199219 79 24 78.699219 24 L 76.199219 24 C 75.898438 24 75.699219 24.199219 75.699219 24.5 C 75.699219 24.800781 75.898438 25 76.199219 25 L 78.699219 25 C 79 25 79.199219 24.800781 79.199219 24.5 Z M 77.199219 20.5 C 77.199219 20.199219 77 20 76.699219 20 L 67 20 C 66.699219 20 66.5 20.199219 66.5 20.5 C 66.5 20.800781 66.800781 21 67 21 L 76.601562 21 C 76.898438 21 77.199219 20.800781 77.199219 20.5 Z M 65.800781 20.5 C 65.800781 20.199219 65.601562 20 65.300781 20 L 64.699219 20 C 64.398438 20 64.199219 20.199219 64.199219 20.5 C 64.199219 20.800781 64.398438 21 64.699219 21 L 65.300781 21 C 65.601562 21 65.800781 20.800781 65.800781 20.5 Z M 63.398438 20.5 C 63.398438 20.199219 63.199219 20 62.898438 20 L 61.398438 20 C 61.101562 20 60.898438 20.199219 60.898438 20.5 C 60.898438 20.800781 61.101562 21 61.398438 21 L 62.898438 21 C 63.199219 21 63.398438 20.800781 63.398438 20.5 Z M 74.601562 22.5 C 74.601562 22.199219 74.398438 22 74.101562 22 L 69.101562 22 C 68.800781 22 68.601562 22.199219 68.601562 22.5 C 68.601562 22.800781 68.800781 23 69.101562 23 L 74.101562 23 C 74.398438 23 74.601562 22.800781 74.601562 22.5 Z M 74.601562 20.5 C 74.601562 20.199219 74.398438 20 74.101562 20 L 72.800781 20 C 72.5 20 72.300781 20.199219 72.300781 20.5 C 72.300781 20.800781 72.5 21 72.800781 21 L 74.101562 21 C 74.398438 21 74.601562 20.800781 74.601562 20.5 Z M 68.101562 22.5 C 68.101562 22.199219 67.898438 22 67.601562 22 L 65.800781 22 C 65.5 22 65.300781 22.199219 65.300781 22.5 C 65.300781 22.800781 65.5 23 65.800781 23 L 67.601562 23 C 67.898438 23 68.101562 22.800781 68.101562 22.5 Z M 68.101562 22.5 "/>
<path style=" stroke:none;fill-rule:nonzero;fill:rgb(46.666667%,79.607844%,82.352942%);fill-opacity:1;" d="M 52 63.101562 C 37.199219 63.101562 26 57.898438 26 51 C 26 44.101562 37.199219 38.898438 52 38.898438 C 66.800781 38.898438 78 44.101562 78 51 C 78 57.898438 66.800781 63.101562 52 63.101562 Z M 52 42.5 C 38.699219 42.5 29.5 47 29.5 51 C 29.5 55 38.800781 59.5 52 59.5 C 65.199219 59.5 74.5 55 74.5 51 C 74.5 47 65.300781 42.5 52 42.5 Z M 52 42.5 "/>
<path style=" stroke:none;fill-rule:nonzero;fill:rgb(27.843139%,16.862746%,16.078432%);fill-opacity:1;" d="M 52 63.800781 C 36.800781 63.800781 25.300781 58.300781 25.300781 51 C 25.300781 43.699219 36.800781 38.199219 52 38.199219 C 67.199219 38.199219 78.699219 43.699219 78.699219 51 C 78.699219 58.300781 67.199219 63.800781 52 63.800781 Z M 52 39.601562 C 37.800781 39.601562 26.699219 44.601562 26.699219 51 C 26.699219 57.398438 37.800781 62.398438 52 62.398438 C 66.199219 62.398438 77.300781 57.398438 77.300781 51 C 77.300781 44.601562 66.199219 39.601562 52 39.601562 Z M 52 60.199219 C 38.101562 60.199219 28.800781 55.398438 28.800781 51 C 28.800781 46.601562 38.101562 41.800781 52 41.800781 C 65.898438 41.800781 75.199219 46.601562 75.199219 51 C 75.199219 55.398438 65.898438 60.199219 52 60.199219 Z M 52 43.199219 C 38.5 43.199219 30.199219 47.699219 30.199219 51 C 30.199219 54.300781 38.5 58.800781 52 58.800781 C 65.5 58.800781 73.800781 54.300781 73.800781 51 C 73.800781 47.699219 65.5 43.199219 52 43.199219 Z M 52 43.199219 "/>
<path style=" stroke:none;fill-rule:nonzero;fill:rgb(46.666667%,79.607844%,82.352942%);fill-opacity:1;" d="M 42.300781 74.398438 C 41.101562 74.398438 40.101562 74.101562 39.101562 73.601562 C 33.398438 70.199219 34.601562 58 42 45.199219 C 47.101562 36.199219 54 29.398438 59.5 28 C 61.5 27.5 63.398438 27.601562 64.898438 28.5 C 70.601562 31.800781 69.398438 44 62 56.898438 C 56.898438 65.898438 50 72.699219 44.5 74.101562 C 43.699219 74.300781 43 74.398438 42.300781 74.398438 Z M 61.699219 31.101562 C 61.300781 31.101562 60.800781 31.199219 60.398438 31.300781 C 55.800781 32.5 49.601562 38.800781 45 46.898438 C 38.601562 58.101562 37.5 68.699219 40.898438 70.601562 C 41.601562 71 42.5 71.101562 43.699219 70.800781 C 48.300781 69.601562 54.5 63.300781 59.101562 55.199219 C 65.5 44 66.601562 33.398438 63.199219 31.5 C 62.800781 31.199219 62.300781 31.101562 61.699219 31.101562 Z M 61.699219 31.101562 "/>
<path style=" stroke:none;fill-rule:nonzero;fill:rgb(27.843139%,16.862746%,16.078432%);fill-opacity:1;" d="M 42.300781 75.101562 C 41 75.101562 39.800781 74.800781 38.800781 74.199219 C 32.800781 70.699219 33.898438 58 41.398438 44.800781 C 46.601562 35.601562 53.699219 28.699219 59.300781 27.199219 C 61.5 26.601562 63.601562 26.800781 65.199219 27.800781 C 71.199219 31.300781 70.101562 44 62.601562 57.199219 C 57.398438 66.398438 50.300781 73.300781 44.699219 74.800781 C 43.898438 75 43.101562 75.101562 42.300781 75.101562 Z M 61.699219 28.300781 C 61 28.300781 60.398438 28.398438 59.601562 28.601562 C 54.300781 30 47.601562 36.699219 42.5 45.5 C 35.5 57.800781 34.101562 69.898438 39.398438 73 C 40.699219 73.800781 42.398438 73.898438 44.300781 73.398438 C 49.601562 72 56.300781 65.300781 61.398438 56.5 C 68.398438 44.199219 69.800781 32.101562 64.5 29 C 63.699219 28.5 62.800781 28.300781 61.699219 28.300781 Z M 42.300781 71.601562 C 41.601562 71.601562 41 71.5 40.5 71.199219 C 36.398438 68.800781 38.199219 57.300781 44.398438 46.5 C 49.101562 38.199219 55.5 31.800781 60.199219 30.601562 C 61.5 30.199219 62.601562 30.300781 63.5 30.800781 C 67.601562 33.199219 65.800781 44.699219 59.601562 55.5 C 54.898438 63.800781 48.5 70.199219 43.800781 71.398438 C 43.300781 71.601562 42.699219 71.601562 42.300781 71.601562 Z M 61.699219 31.800781 C 61.398438 31.800781 61 31.898438 60.5 32 C 56.101562 33.199219 50.101562 39.300781 45.5 47.300781 C 38.898438 58.898438 38.5 68.5 41.101562 70.101562 C 41.601562 70.398438 42.398438 70.398438 43.300781 70.199219 C 47.699219 69 53.699219 62.898438 58.300781 54.898438 C 64.898438 43.300781 65.300781 33.699219 62.699219 32.101562 C 62.5 31.898438 62.101562 31.800781 61.699219 31.800781 Z M 61.699219 31.800781 "/>
<path style=" stroke:none;fill-rule:nonzero;fill:rgb(46.666667%,79.607844%,82.352942%);fill-opacity:1;" d="M 61.699219 74.398438 C 61 74.398438 60.199219 74.300781 59.5 74.101562 C 54 72.601562 47.101562 65.800781 42 56.800781 C 34.699219 43.898438 33.398438 31.699219 39.101562 28.398438 C 40.601562 27.5 42.5 27.300781 44.5 27.898438 C 50 29.398438 56.898438 36.199219 62 45.199219 C 69.300781 58.101562 70.601562 70.300781 64.898438 73.601562 C 64 74.101562 62.898438 74.398438 61.699219 74.398438 Z M 42.300781 31.101562 C 41.800781 31.101562 41.300781 31.199219 40.898438 31.398438 C 37.601562 33.300781 38.601562 43.898438 45 55.101562 C 49.601562 63.199219 55.800781 69.5 60.398438 70.699219 C 61.5 71 62.5 71 63.199219 70.5 C 66.5 68.601562 65.5 58 59.101562 46.800781 C 54.5 38.699219 48.300781 32.398438 43.699219 31.199219 C 43.101562 31.101562 42.699219 31.101562 42.300781 31.101562 Z M 42.300781 31.101562 "/>
<path style=" stroke:none;fill-rule:nonzero;fill:rgb(27.843139%,16.862746%,16.078432%);fill-opacity:1;" d="M 61.699219 75.101562 C 60.898438 75.101562 60.101562 75 59.300781 74.800781 C 53.601562 73.300781 46.601562 66.398438 41.398438 57.199219 C 33.699219 43.800781 32.601562 31.398438 38.800781 27.800781 C 40.5 26.800781 42.5 26.601562 44.699219 27.199219 C 50.398438 28.699219 57.398438 35.601562 62.601562 44.800781 C 70.101562 58 71.300781 70.601562 65.199219 74.199219 C 64.199219 74.800781 63 75.101562 61.699219 75.101562 Z M 42.300781 28.300781 C 41.300781 28.300781 40.300781 28.5 39.5 29 C 34.199219 32.101562 35.601562 44.101562 42.601562 56.5 C 47.601562 65.398438 54.398438 72 59.699219 73.398438 C 61.5 73.898438 63.199219 73.699219 64.601562 73 C 69.898438 69.898438 68.5 57.898438 61.5 45.5 C 56.5 36.601562 49.699219 30 44.398438 28.601562 C 43.601562 28.398438 42.898438 28.300781 42.300781 28.300781 Z M 61.699219 71.601562 C 61.199219 71.601562 60.699219 71.5 60.199219 71.398438 C 55.398438 70.101562 49.101562 63.699219 44.398438 55.5 C 38.300781 44.699219 36.5 33.199219 40.5 30.800781 C 41.398438 30.300781 42.5 30.199219 43.800781 30.601562 C 48.601562 31.898438 54.898438 38.300781 59.601562 46.5 C 65.699219 57.300781 67.5 68.800781 63.5 71.199219 C 63 71.5 62.398438 71.601562 61.699219 71.601562 Z M 42.300781 31.800781 C 41.898438 31.800781 41.5 31.898438 41.199219 32.101562 C 38.601562 33.601562 39 43.300781 45.601562 54.898438 C 50.101562 62.898438 56.199219 69 60.601562 70.199219 C 61.601562 70.5 62.300781 70.398438 62.800781 70.101562 C 65.398438 68.601562 65 58.898438 58.398438 47.300781 C 53.898438 39.300781 47.800781 33.199219 43.398438 32 C 43 31.800781 42.601562 31.800781 42.300781 31.800781 Z M 42.300781 31.800781 "/>
<path style=" stroke:none;fill-rule:nonzero;fill:rgb(46.666667%,79.607844%,82.352942%);fill-opacity:1;" d="M 57.5 51 C 57.5 54.039062 55.039062 56.5 52 56.5 C 48.960938 56.5 46.5 54.039062 46.5 51 C 46.5 47.960938 48.960938 45.5 52 45.5 C 55.039062 45.5 57.5 47.960938 57.5 51 Z M 57.5 51 "/>
<path style=" stroke:none;fill-rule:nonzero;fill:rgb(27.843139%,16.862746%,16.078432%);fill-opacity:1;" d="M 52 57 C 48.699219 57 46 54.300781 46 51 C 46 47.699219 48.699219 45 52 45 C 55.300781 45 58 47.699219 58 51 C 58 54.300781 55.300781 57 52 57 Z M 52 46 C 49.199219 46 47 48.199219 47 51 C 47 53.800781 49.199219 56 52 56 C 54.800781 56 57 53.800781 57 51 C 57 48.199219 54.800781 46 52 46 Z M 52 46 "/>
<path style=" stroke:none;fill-rule:nonzero;fill:rgb(27.843139%,16.862746%,16.078432%);fill-opacity:1;" d="M 52 54.5 C 51.898438 54.5 51.699219 54.398438 51.699219 54.199219 C 51.699219 54 51.898438 54 52 54 C 52.300781 54 52.699219 53.898438 53 53.800781 C 53.398438 53.601562 53.898438 53.398438 54.199219 53 C 54.300781 52.898438 54.5 52.898438 54.601562 53 C 54.699219 53.101562 54.699219 53.300781 54.601562 53.398438 C 54.199219 53.800781 53.699219 54.101562 53.199219 54.300781 C 52.800781 54.398438 52.398438 54.5 52 54.5 Z M 52 54.5 "/>
<path style=" stroke:none;fill-rule:nonzero;fill:rgb(27.843139%,16.862746%,16.078432%);fill-opacity:1;" d="M 54.898438 52.699219 L 54.800781 52.699219 C 54.699219 52.601562 54.601562 52.5 54.699219 52.398438 C 54.898438 52 55 51.5 55 51.101562 C 55 49.898438 54.398438 48.898438 53.300781 48.398438 C 53.199219 48.300781 53.101562 48.199219 53.199219 48.101562 C 53.300781 48 53.398438 47.898438 53.5 48 C 54.699219 48.601562 55.5 49.800781 55.5 51.101562 C 55.5 51.601562 55.398438 52.199219 55.101562 52.601562 C 55.101562 52.601562 55 52.699219 54.898438 52.699219 Z M 54.898438 52.699219 "/>
<path style=" stroke:none;fill-rule:nonzero;fill:rgb(27.843139%,16.862746%,16.078432%);fill-opacity:1;" d="M 50.199219 48.5 C 50.101562 48.5 50 48.5 50 48.398438 C 49.898438 48.300781 50 48.101562 50.101562 48.101562 C 50.699219 47.699219 51.300781 47.5 52 47.5 C 52.101562 47.5 52.300781 47.601562 52.300781 47.800781 C 52.300781 48 52.101562 48 52 48 C 51.398438 48 50.898438 48.199219 50.398438 48.5 C 50.300781 48.5 50.300781 48.5 50.199219 48.5 Z M 50.199219 48.5 "/>
<path style=" stroke:none;fill-rule:nonzero;fill:rgb(27.843139%,16.862746%,16.078432%);fill-opacity:1;" d="M 55.300781 38.699219 C 55.199219 38.699219 55.199219 38.699219 55.101562 38.601562 C 51.699219 34.398438 48.398438 31.601562 45.5 30.300781 C 45.398438 30.199219 45.300781 30.101562 45.398438 30 C 45.5 29.898438 45.601562 29.800781 45.699219 29.898438 C 48.699219 31.199219 52.101562 34 55.5 38.398438 C 55.601562 38.5 55.601562 38.699219 55.5 38.800781 C 55.398438 38.699219 55.300781 38.699219 55.300781 38.699219 Z M 55.300781 38.699219 "/>
<path style=" stroke:none;fill-rule:nonzero;fill:rgb(27.843139%,16.862746%,16.078432%);fill-opacity:1;" d="M 39.5 30.398438 C 39.398438 30.398438 39.398438 30.398438 39.300781 30.300781 C 39.199219 30.199219 39.199219 30 39.300781 29.898438 C 39.601562 29.699219 41 28.699219 43.699219 29.199219 C 43.800781 29.199219 43.898438 29.398438 43.898438 29.5 C 43.898438 29.601562 43.699219 29.699219 43.601562 29.699219 C 41.101562 29.199219 39.699219 30.101562 39.601562 30.300781 Z M 39.5 30.398438 "/>
<path style=" stroke:none;fill-rule:nonzero;fill:rgb(27.843139%,16.862746%,16.078432%);fill-opacity:1;" d="M 73.601562 56.101562 C 73.5 56.101562 73.5 56.101562 73.398438 56 C 73.300781 55.898438 73.300781 55.699219 73.398438 55.601562 C 75.601562 53.800781 76.398438 51.800781 75.898438 49.5 C 75.898438 49.398438 76 49.199219 76.101562 49.199219 C 76.199219 49.199219 76.398438 49.300781 76.398438 49.398438 C 76.898438 51.800781 76 54.101562 73.699219 56 C 73.699219 56.101562 73.699219 56.101562 73.601562 56.101562 Z M 73.601562 56.101562 "/>
<path style=" stroke:none;fill-rule:nonzero;fill:rgb(27.843139%,16.862746%,16.078432%);fill-opacity:1;" d="M 69.601562 58.300781 C 69.5 58.300781 69.398438 58.199219 69.398438 58.101562 C 69.398438 58 69.398438 57.800781 69.601562 57.800781 C 69.601562 57.800781 70.898438 57.398438 72.300781 56.5 C 72.398438 56.398438 72.601562 56.5 72.601562 56.601562 C 72.699219 56.699219 72.601562 56.898438 72.5 56.898438 C 71 57.898438 69.699219 58.300781 69.601562 58.300781 C 69.699219 58.300781 69.601562 58.300781 69.601562 58.300781 Z M 69.601562 58.300781 "/>
<path style=" stroke:none;fill-rule:nonzero;fill:rgb(27.843139%,16.862746%,16.078432%);fill-opacity:1;" d="M 41.898438 73 C 39.398438 72.898438 37.800781 71.101562 37.199219 67.699219 C 37.199219 67.601562 37.300781 67.398438 37.398438 67.398438 C 37.5 67.398438 37.699219 67.5 37.699219 67.601562 C 38.199219 70.800781 39.601562 72.398438 41.898438 72.5 C 42 72.5 42.101562 72.601562 42.101562 72.800781 C 42.101562 72.800781 42 73 41.898438 73 Z M 41.898438 73 "/>
<path style=" stroke:none;fill-rule:nonzero;fill:rgb(27.843139%,16.862746%,16.078432%);fill-opacity:1;" d="M 37.300781 65.601562 C 37.199219 65.601562 37.101562 65.5 37 65.398438 C 36.898438 63.300781 37.199219 61.398438 37.300781 61.199219 C 37.300781 61.101562 37.5 61 37.601562 61 C 37.699219 61 37.800781 61.199219 37.800781 61.300781 C 37.800781 61.398438 37.5 63.199219 37.5 65.398438 C 37.5 65.5 37.398438 65.601562 37.300781 65.601562 Z M 37.300781 65.601562 "/>
<path style=" stroke:none;fill-rule:nonzero;fill:rgb(99.215686%,98.823529%,93.725491%);fill-opacity:1;" d="M 79.199219 64.300781 C 81.101562 64.300781 82.699219 64.300781 82.699219 64.300781 C 84.800781 64.300781 86.5 62.601562 86.5 60.601562 C 86.5 58.800781 85.199219 57.300781 83.5 56.898438 C 83.5 56.699219 83.5 56.601562 83.5 56.398438 C 83.5 54.300781 81.699219 52.5 79.5 52.5 C 78.199219 52.5 77.101562 53.101562 76.300781 54 C 76.101562 51.601562 73.898438 49.800781 71.398438 50.101562 C 69.5 50.300781 68 51.699219 67.699219 53.5 C 67.601562 54.101562 67.601562 54.601562 67.699219 55.199219 C 67.199219 54.699219 66.5 54.300781 65.699219 54.300781 C 64.300781 54.300781 63.101562 55.398438 63 56.800781 C 62.300781 56.699219 61.601562 56.699219 60.898438 56.898438 C 59.5 57.398438 58.398438 58.800781 58.398438 60.300781 C 58.300781 62.398438 60.101562 64.199219 62.199219 64.199219 C 62.398438 64.199219 62.898438 64.199219 63.101562 64.199219 L 71 64.199219 M 72.699219 64.300781 L 73.101562 64.300781 "/>
<path style=" stroke:none;fill-rule:nonzero;fill:rgb(27.843139%,16.862746%,16.078432%);fill-opacity:1;" d="M 82.699219 64.800781 L 79.199219 64.800781 C 78.898438 64.800781 78.699219 64.601562 78.699219 64.300781 C 78.699219 64 78.898438 63.800781 79.199219 63.800781 L 82.699219 63.800781 C 84.5 63.800781 86 62.300781 86 60.601562 C 86 59.101562 84.898438 57.699219 83.398438 57.398438 C 83.101562 57.300781 83 57.101562 83 56.800781 C 83 56.699219 83 56.5 83 56.398438 C 83 54.5 81.398438 53 79.5 53 C 78.398438 53 77.398438 53.5 76.699219 54.300781 C 76.601562 54.5 76.398438 54.5 76.199219 54.5 C 76 54.398438 75.898438 54.300781 75.800781 54.101562 C 75.699219 53.101562 75.199219 52.199219 74.398438 51.5 C 73.601562 50.800781 72.5 50.5 71.398438 50.601562 C 69.800781 50.800781 68.398438 52 68.101562 53.601562 C 68 54.101562 68 54.601562 68.101562 55.101562 C 68.101562 55.300781 68 55.5 67.800781 55.601562 C 67.601562 55.699219 67.398438 55.699219 67.199219 55.5 C 66.800781 55 66.199219 54.800781 65.601562 54.800781 C 64.398438 54.800781 63.5 55.699219 63.398438 56.800781 C 63.398438 56.898438 63.300781 57.101562 63.199219 57.199219 C 63.101562 57.300781 62.898438 57.300781 62.800781 57.300781 C 62.199219 57.199219 61.601562 57.199219 61 57.398438 C 59.699219 57.898438 58.898438 59 58.800781 60.300781 C 58.800781 61.199219 59.101562 62 59.699219 62.601562 C 60.300781 63.300781 61.199219 63.601562 62.101562 63.601562 L 70.898438 63.601562 C 71.199219 63.601562 71.398438 63.800781 71.398438 64.101562 C 71.398438 64.398438 71.199219 64.601562 70.898438 64.601562 L 62.101562 64.601562 C 60.898438 64.601562 59.800781 64.101562 59 63.300781 C 58.199219 62.5 57.800781 61.398438 57.800781 60.199219 C 57.898438 58.5 59 57 60.601562 56.398438 C 61.199219 56.199219 61.800781 56.101562 62.5 56.199219 C 62.800781 54.800781 64.101562 53.800781 65.601562 53.800781 C 66.101562 53.800781 66.601562 53.898438 67 54.101562 C 67 53.898438 67 53.601562 67.101562 53.398438 C 67.5 51.398438 69.199219 49.800781 71.300781 49.601562 C 72.699219 49.398438 74 49.800781 75 50.699219 C 75.699219 51.300781 76.300781 52.101562 76.5 53 C 77.300781 52.398438 78.300781 52 79.300781 52 C 81.800781 52 83.800781 54 83.800781 56.398438 L 83.800781 56.5 C 85.601562 57.101562 86.800781 58.699219 86.800781 60.5 C 87 62.898438 85.101562 64.800781 82.699219 64.800781 Z M 73.101562 64.800781 L 72.699219 64.800781 C 72.398438 64.800781 72.199219 64.601562 72.199219 64.300781 C 72.199219 64 72.398438 63.800781 72.699219 63.800781 L 73.101562 63.800781 C 73.398438 63.800781 73.601562 64 73.601562 64.300781 C 73.601562 64.601562 73.300781 64.800781 73.101562 64.800781 Z M 73.101562 64.800781 "/>
<path style=" stroke:none;fill-rule:nonzero;fill:rgb(27.843139%,16.862746%,16.078432%);fill-opacity:1;" d="M 81 59 C 80.800781 59 80.699219 58.800781 80.800781 58.699219 C 80.800781 58.5 80.898438 58.398438 81 58.199219 C 81.601562 57 83.300781 56.5 84.699219 57.199219 C 84.800781 57.300781 84.898438 57.398438 84.800781 57.5 C 84.699219 57.601562 84.601562 57.699219 84.5 57.601562 C 83.300781 57 81.898438 57.398438 81.398438 58.398438 C 81.300781 58.5 81.300781 58.601562 81.300781 58.800781 C 81.199219 58.898438 81.101562 59 81 59 Z M 81 59 "/>
<path style=" stroke:none;fill-rule:nonzero;fill:rgb(27.843139%,16.862746%,16.078432%);fill-opacity:1;" d="M 75.898438 64.800781 L 74.800781 64.800781 C 74.5 64.800781 74.300781 64.601562 74.300781 64.300781 C 74.300781 64 74.5 63.800781 74.800781 63.800781 L 75.898438 63.800781 C 76.199219 63.800781 76.398438 64 76.398438 64.300781 C 76.398438 64.601562 76.101562 64.800781 75.898438 64.800781 Z M 75.898438 64.800781 "/>
<path style=" stroke:none;fill-rule:nonzero;fill:rgb(80.000001%,80.000001%,80.000001%);fill-opacity:1;" d="M 57.671875 40.082031 L 57.671875 42.234375 L 51.292969 42.234375 L 51.292969 59.917969 L 48.6875 59.917969 L 48.6875 42.234375 L 42.328125 42.234375 L 42.328125 40.082031 Z M 57.671875 40.082031 "/>
<path style=" stroke:none;fill-rule:nonzero;fill:rgb(99.215686%,98.823529%,93.725491%);fill-opacity:1;" d="M 93.6875 78.6875 C 93.6875 86.96875 86.96875 93.6875 78.6875 93.6875 C 70.402344 93.6875 63.6875 86.96875 63.6875 78.6875 C 63.6875 70.402344 70.402344 63.6875 78.6875 63.6875 C 86.96875 63.6875 93.6875 70.402344 93.6875 78.6875 Z M 93.6875 78.6875 "/>
<path style=" stroke:none;fill-rule:nonzero;fill:rgb(27.843139%,16.862746%,16.078432%);fill-opacity:1;" d="M 78.6875 64.585938 C 86.460938 64.585938 92.785156 70.910156 92.785156 78.6875 C 92.785156 86.460938 86.460938 92.785156 78.6875 92.785156 C 70.910156 92.785156 64.585938 86.460938 64.585938 78.6875 C 64.585938 70.910156 70.910156 64.585938 78.6875 64.585938 M 78.6875 63.1875 C 70.125 63.1875 63.1875 70.125 63.1875 78.6875 C 63.1875 87.246094 70.125 94.1875 78.6875 94.1875 C 87.246094 94.1875 94.1875 87.246094 94.1875 78.6875 C 94.1875 70.125 87.246094 63.1875 78.6875 63.1875 Z M 78.6875 63.1875 "/>
<path style=" stroke:none;fill-rule:nonzero;fill:rgb(93.333334%,24.313726%,32.941177%);fill-opacity:1;" d="M 90.933594 78.6875 C 90.933594 85.453125 85.449219 90.9375 78.683594 90.9375 C 71.917969 90.9375 66.433594 85.453125 66.433594 78.6875 C 66.433594 71.921875 71.917969 66.4375 78.683594 66.4375 C 85.449219 66.4375 90.933594 71.921875 90.933594 78.6875 Z M 90.933594 78.6875 "/>
<path style=" stroke:none;fill-rule:nonzero;fill:rgb(95.294118%,52.156866%,56.078434%);fill-opacity:1;" d="M 78.6875 66.4375 C 71.929688 66.4375 66.4375 71.929688 66.4375 78.6875 C 66.4375 78.839844 66.453125 78.988281 66.460938 79.140625 C 67.636719 73.460938 72.65625 69.1875 78.6875 69.1875 C 84.71875 69.1875 89.738281 73.460938 90.914062 79.144531 C 90.917969 78.992188 90.9375 78.839844 90.9375 78.6875 C 90.9375 71.929688 85.441406 66.4375 78.6875 66.4375 Z M 78.6875 66.4375 "/>
<path style=" stroke:none;fill-rule:nonzero;fill:rgb(27.843139%,16.862746%,16.078432%);fill-opacity:1;" d="M 78.683594 66.6875 C 85.300781 66.6875 90.6875 72.070312 90.6875 78.6875 C 90.6875 85.304688 85.304688 90.6875 78.683594 90.6875 C 72.070312 90.6875 66.6875 85.304688 66.6875 78.6875 C 66.6875 72.070312 72.070312 66.6875 78.683594 66.6875 M 78.683594 66.1875 C 71.792969 66.1875 66.1875 71.792969 66.1875 78.6875 C 66.1875 85.578125 71.792969 91.1875 78.683594 91.1875 C 85.578125 91.1875 91.1875 85.578125 91.1875 78.6875 C 91.1875 71.792969 85.578125 66.1875 78.683594 66.1875 Z M 78.683594 66.1875 "/>
<path style=" stroke:none;fill-rule:nonzero;fill:rgb(94.509804%,73.725492%,9.803922%);fill-opacity:1;" d="M 78.6875 71.5625 L 80.808594 75.9375 L 85.5625 76.632812 L 82.121094 80.003906 L 82.8125 84.8125 L 78.6875 82.519531 L 74.5625 84.8125 L 75.246094 80.003906 L 71.8125 76.632812 L 76.5625 75.9375 Z M 78.6875 71.5625 "/>
<path style=" stroke:none;fill-rule:nonzero;fill:rgb(27.843139%,16.862746%,16.078432%);fill-opacity:1;" d="M 82.8125 85.1875 C 82.746094 85.1875 82.6875 85.171875 82.628906 85.140625 L 78.6875 82.949219 L 74.742188 85.140625 C 74.617188 85.207031 74.46875 85.199219 74.347656 85.121094 C 74.230469 85.039062 74.167969 84.898438 74.191406 84.757812 L 74.851562 80.140625 L 71.546875 76.898438 C 71.445312 76.800781 71.410156 76.652344 71.453125 76.515625 C 71.496094 76.378906 71.613281 76.28125 71.757812 76.261719 L 76.3125 75.59375 L 78.347656 71.398438 C 78.472656 71.136719 78.898438 71.136719 79.023438 71.398438 L 81.0625 75.59375 L 85.617188 76.261719 C 85.757812 76.28125 85.875 76.378906 85.917969 76.515625 C 85.960938 76.652344 85.925781 76.800781 85.824219 76.898438 L 82.523438 80.140625 L 83.183594 84.757812 C 83.203125 84.898438 83.140625 85.039062 83.023438 85.121094 C 82.960938 85.164062 82.886719 85.1875 82.8125 85.1875 Z M 78.6875 82.144531 C 78.75 82.144531 78.8125 82.160156 78.867188 82.191406 L 82.332031 84.113281 L 81.753906 80.058594 C 81.734375 79.9375 81.777344 79.820312 81.859375 79.734375 L 84.757812 76.890625 L 80.753906 76.304688 C 80.632812 76.289062 80.527344 76.210938 80.472656 76.097656 L 78.6875 72.421875 L 76.898438 76.101562 C 76.84375 76.214844 76.738281 76.289062 76.617188 76.308594 L 72.613281 76.894531 L 75.511719 79.738281 C 75.597656 79.820312 75.636719 79.941406 75.617188 80.058594 L 75.039062 84.117188 L 78.503906 82.195312 C 78.5625 82.160156 78.625 82.144531 78.6875 82.144531 Z M 78.6875 82.144531 "/>
</g>
</svg>
